<svg xmlns="http://www.w3.org/2000/svg" width="760" height="980" viewBox="0 0 760 980">
  <defs>
    <linearGradient id="base" x1="0" y1="0" x2="0.5" y2="1">
      <stop offset="0" stop-color="#fdf0f5"/>
      <stop offset="1" stop-color="#f8d8e6"/>
    </linearGradient>
  </defs>
  <rect width="760" height="980" fill="url(#base)"/>
  <!-- flowing silk curves -->
  <g stroke="#e3759f" fill="none" stroke-linecap="round">
    <path d="M-40 220C200 120 360 360 800 240" stroke-opacity="0.18" stroke-width="60"/>
    <path d="M-40 760C260 640 460 900 800 740" stroke-opacity="0.12" stroke-width="80"/>
    <path d="M-40 500C300 420 480 600 800 500" stroke-opacity="0.08" stroke-width="40"/>
  </g>
  <!-- petals -->
  <g fill="#e3759f" fill-opacity="0.18">
    <path d="M620 140c20 18 20 46 0 64-20-18-20-46 0-64z"/>
    <path d="M120 860c16 14 16 38 0 52-16-14-16-38 0-52z"/>
    <path d="M680 880c14 12 14 32 0 44-14-12-14-32 0-44z"/>
  </g>
  <g fill="#c8487c" fill-opacity="0.15">
    <circle cx="90" cy="120" r="5"/>
    <circle cx="700" cy="420" r="4"/>
    <circle cx="380" cy="60" r="4"/>
    <circle cx="300" cy="930" r="5"/>
  </g>
</svg>
