<svg xmlns="http://www.w3.org/2000/svg" width="760" height="980" viewBox="0 0 760 980">
  <defs>
    <linearGradient id="base" x1="0" y1="0" x2="1" y2="1">
      <stop offset="0" stop-color="#4c1d95"/>
      <stop offset="1" stop-color="#86198f"/>
    </linearGradient>
    <linearGradient id="streak" x1="0" y1="1" x2="1" y2="0">
      <stop offset="0" stop-color="#ffffff" stop-opacity="0"/>
      <stop offset="0.5" stop-color="#ffffff" stop-opacity="0.1"/>
      <stop offset="1" stop-color="#ffffff" stop-opacity="0"/>
    </linearGradient>
  </defs>
  <rect width="760" height="980" fill="url(#base)"/>
  <polygon points="0,980 760,420 760,640 0,980" fill="url(#streak)"/>
  <!-- rising bars -->
  <g fill="#ffffff" fill-opacity="0.1">
    <rect x="80" y="800" width="34" height="90" rx="6"/>
    <rect x="130" y="750" width="34" height="140" rx="6"/>
    <rect x="180" y="690" width="34" height="200" rx="6"/>
    <rect x="230" y="610" width="34" height="280" rx="6"/>
  </g>
  <path d="M86 760L160 690L226 640L300 540" stroke="#ffffff" stroke-opacity="0.25" stroke-width="4" fill="none" stroke-linecap="round"/>
  <path d="M276 540h28m-14-14v28" stroke="#ffffff" stroke-opacity="0.3" stroke-width="4" stroke-linecap="round"/>
  <!-- sparks -->
  <g stroke="#ffffff" stroke-opacity="0.22" stroke-width="3" stroke-linecap="round">
    <path d="M600 160v36m-18-18h36"/>
    <path d="M680 320v24m-12-12h24"/>
    <path d="M520 80v24m-12-12h24"/>
  </g>
  <circle cx="640" cy="760" r="90" stroke="#ffffff" stroke-opacity="0.08" fill="none" stroke-width="3"/>
  <circle cx="640" cy="760" r="60" stroke="#ffffff" stroke-opacity="0.06" fill="none" stroke-width="3"/>
</svg>
