<svg xmlns="http://www.w3.org/2000/svg" width="760" height="980" viewBox="0 0 760 980">
  <defs>
    <linearGradient id="base" x1="0" y1="0" x2="0.4" y2="1">
      <stop offset="0" stop-color="#1d4a35"/>
      <stop offset="1" stop-color="#102e1e"/>
    </linearGradient>
  </defs>
  <rect width="760" height="980" fill="url(#base)"/>
  <!-- ruled chalk lines -->
  <g stroke="#ffffff" stroke-opacity="0.06" stroke-width="2">
    <path d="M0 240h760M0 360h760M0 480h760M0 600h760M0 720h760M0 840h760"/>
  </g>
  <!-- chalk doodles -->
  <g stroke="#f4f1de" fill="none" stroke-linecap="round" stroke-width="3">
    <path stroke-opacity="0.2" d="M90 150c30-40 80-40 110 0" />
    <path stroke-opacity="0.16" d="M600 120l40 60m0-60l-40 60"/>
    <circle cx="660" cy="420" r="34" stroke-opacity="0.14"/>
    <path stroke-opacity="0.14" d="M626 420a34 34 0 0 1 34 -34"/>
    <path stroke-opacity="0.18" d="M110 540l50 -36v72z"/>
    <path stroke-opacity="0.16" d="M580 760c20-24 60-24 80 0s-60 50-40 14"/>
    <path stroke-opacity="0.12" d="M140 880h120m-100 22h80"/>
  </g>
  <!-- a2 + b2 -->
  <g fill="#f4f1de" fill-opacity="0.16" font-family="Georgia, serif" font-size="40" font-style="italic">
    <text x="300" y="320">a²+b²=c²</text>
  </g>
</svg>
